<svg width="345" height="219" viewBox="0 0 345 219" fill="none" xmlns="http://www.w3.org/2000/svg">
<g filter="url(#filter0_f_19_1987)">
<rect x="73" y="73" width="199" height="73" fill="#FF0057"/>
</g>
<rect x="61" y="73" width="220.696" height="73.2711" rx="36.6355" fill="#1E1E1E"/>
<path d="M103.51 112.898H107.256C107.136 114.327 106.737 115.6 106.057 116.719C105.378 117.828 104.424 118.702 103.196 119.341C101.967 119.98 100.474 120.3 98.7162 120.3C97.3678 120.3 96.1543 120.06 95.0755 119.581C93.9968 119.091 93.0729 118.402 92.3039 117.513C91.5348 116.614 90.9455 115.53 90.536 114.262C90.1364 112.993 89.9367 111.575 89.9367 110.007V108.194C89.9367 106.626 90.1414 105.208 90.5509 103.939C90.9704 102.671 91.5697 101.587 92.3488 100.688C93.1279 99.7791 94.0618 99.085 95.1505 98.6055C96.2491 98.1261 97.4827 97.8864 98.851 97.8864C100.589 97.8864 102.057 98.206 103.256 98.8452C104.454 99.4845 105.383 100.368 106.042 101.497C106.712 102.626 107.121 103.919 107.271 105.377H103.525C103.426 104.439 103.206 103.635 102.866 102.965C102.537 102.296 102.047 101.787 101.398 101.437C100.749 101.078 99.8998 100.898 98.851 100.898C97.9921 100.898 97.243 101.058 96.6037 101.377C95.9645 101.697 95.4301 102.166 95.0006 102.786C94.5711 103.405 94.2465 104.169 94.0268 105.078C93.817 105.977 93.7122 107.006 93.7122 108.164V110.007C93.7122 111.106 93.8071 112.104 93.9968 113.003C94.1966 113.892 94.4962 114.656 94.8958 115.296C95.3053 115.935 95.8247 116.429 96.4539 116.779C97.0831 117.128 97.8372 117.303 98.7162 117.303C99.7849 117.303 100.649 117.133 101.308 116.794C101.977 116.454 102.482 115.96 102.821 115.311C103.171 114.651 103.401 113.847 103.51 112.898ZM109.623 112.074V111.73C109.623 110.561 109.793 109.478 110.133 108.479C110.472 107.47 110.962 106.596 111.601 105.857C112.25 105.108 113.039 104.528 113.968 104.119C114.907 103.699 115.966 103.49 117.144 103.49C118.333 103.49 119.392 103.699 120.32 104.119C121.259 104.528 122.053 105.108 122.703 105.857C123.352 106.596 123.846 107.47 124.186 108.479C124.525 109.478 124.695 110.561 124.695 111.73V112.074C124.695 113.243 124.525 114.327 124.186 115.326C123.846 116.324 123.352 117.198 122.703 117.947C122.053 118.687 121.264 119.266 120.335 119.685C119.407 120.095 118.353 120.3 117.174 120.3C115.986 120.3 114.922 120.095 113.983 119.685C113.054 119.266 112.265 118.687 111.616 117.947C110.967 117.198 110.472 116.324 110.133 115.326C109.793 114.327 109.623 113.243 109.623 112.074ZM113.234 111.73V112.074C113.234 112.804 113.309 113.493 113.459 114.142C113.608 114.791 113.843 115.361 114.163 115.85C114.482 116.339 114.892 116.724 115.391 117.004C115.891 117.283 116.485 117.423 117.174 117.423C117.843 117.423 118.423 117.283 118.912 117.004C119.412 116.724 119.821 116.339 120.141 115.85C120.46 115.361 120.695 114.791 120.845 114.142C121.005 113.493 121.085 112.804 121.085 112.074V111.73C121.085 111.011 121.005 110.332 120.845 109.692C120.695 109.043 120.455 108.469 120.126 107.969C119.806 107.47 119.397 107.08 118.897 106.801C118.408 106.511 117.823 106.366 117.144 106.366C116.465 106.366 115.876 106.511 115.376 106.801C114.887 107.08 114.482 107.47 114.163 107.969C113.843 108.469 113.608 109.043 113.459 109.692C113.309 110.332 113.234 111.011 113.234 111.73ZM131.302 107.25V120H127.692V103.789H131.093L131.302 107.25ZM130.658 111.295L129.489 111.28C129.499 110.132 129.659 109.078 129.969 108.119C130.289 107.16 130.728 106.336 131.287 105.647C131.857 104.958 132.536 104.429 133.325 104.059C134.114 103.679 134.993 103.49 135.962 103.49C136.741 103.49 137.445 103.6 138.074 103.819C138.713 104.029 139.258 104.374 139.707 104.853C140.167 105.333 140.516 105.957 140.756 106.726C140.996 107.485 141.116 108.419 141.116 109.527V120H137.49V109.513C137.49 108.733 137.375 108.119 137.145 107.67C136.926 107.21 136.601 106.886 136.172 106.696C135.752 106.496 135.228 106.396 134.598 106.396C133.979 106.396 133.425 106.526 132.935 106.786C132.446 107.045 132.031 107.4 131.692 107.849C131.362 108.299 131.108 108.818 130.928 109.408C130.748 109.997 130.658 110.626 130.658 111.295ZM152.232 103.789V106.426H143.093V103.789H152.232ZM145.73 99.8191H149.341V115.52C149.341 116.02 149.411 116.404 149.551 116.674C149.7 116.934 149.905 117.108 150.165 117.198C150.424 117.288 150.729 117.333 151.079 117.333C151.328 117.333 151.568 117.318 151.798 117.288C152.028 117.258 152.212 117.228 152.352 117.198L152.367 119.955C152.068 120.045 151.718 120.125 151.318 120.195C150.929 120.265 150.479 120.3 149.97 120.3C149.141 120.3 148.407 120.155 147.768 119.865C147.128 119.566 146.629 119.081 146.269 118.412C145.91 117.743 145.73 116.854 145.73 115.745V99.8191ZM158.884 103.789V120H155.259V103.789H158.884ZM155.019 99.5344C155.019 98.9851 155.199 98.5306 155.558 98.171C155.928 97.8015 156.437 97.6167 157.087 97.6167C157.726 97.6167 158.23 97.8015 158.6 98.171C158.969 98.5306 159.154 98.9851 159.154 99.5344C159.154 100.074 158.969 100.523 158.6 100.883C158.23 101.242 157.726 101.422 157.087 101.422C156.437 101.422 155.928 101.242 155.558 100.883C155.199 100.523 155.019 100.074 155.019 99.5344ZM166.42 107.25V120H162.81V103.789H166.211L166.42 107.25ZM165.776 111.295L164.608 111.28C164.618 110.132 164.777 109.078 165.087 108.119C165.407 107.16 165.846 106.336 166.405 105.647C166.975 104.958 167.654 104.429 168.443 104.059C169.232 103.679 170.111 103.49 171.08 103.49C171.859 103.49 172.563 103.6 173.192 103.819C173.832 104.029 174.376 104.374 174.825 104.853C175.285 105.333 175.634 105.957 175.874 106.726C176.114 107.485 176.234 108.419 176.234 109.527V120H172.608V109.513C172.608 108.733 172.493 108.119 172.263 107.67C172.044 107.21 171.719 106.886 171.29 106.696C170.87 106.496 170.346 106.396 169.716 106.396C169.097 106.396 168.543 106.526 168.053 106.786C167.564 107.045 167.15 107.4 166.81 107.849C166.48 108.299 166.226 108.818 166.046 109.408C165.866 109.997 165.776 110.626 165.776 111.295ZM189.673 116.18V103.789H193.298V120H189.882L189.673 116.18ZM190.182 112.809L191.396 112.779C191.396 113.867 191.276 114.871 191.036 115.79C190.796 116.699 190.427 117.493 189.927 118.172C189.428 118.841 188.789 119.366 188.01 119.745C187.231 120.115 186.297 120.3 185.208 120.3C184.419 120.3 183.695 120.185 183.036 119.955C182.376 119.725 181.807 119.371 181.328 118.891C180.858 118.412 180.494 117.788 180.234 117.019C179.974 116.249 179.844 115.331 179.844 114.262V103.789H183.455V114.292C183.455 114.881 183.525 115.376 183.665 115.775C183.805 116.165 183.994 116.479 184.234 116.719C184.474 116.959 184.754 117.128 185.073 117.228C185.393 117.328 185.732 117.378 186.092 117.378C187.121 117.378 187.93 117.178 188.519 116.779C189.118 116.369 189.543 115.82 189.793 115.131C190.052 114.442 190.182 113.668 190.182 112.809ZM204.145 120.3C202.947 120.3 201.863 120.105 200.894 119.715C199.935 119.316 199.116 118.761 198.437 118.052C197.768 117.343 197.254 116.509 196.894 115.55C196.534 114.591 196.355 113.558 196.355 112.449V111.85C196.355 110.581 196.539 109.433 196.909 108.404C197.279 107.375 197.793 106.496 198.452 105.767C199.111 105.028 199.89 104.464 200.789 104.074C201.688 103.684 202.662 103.49 203.711 103.49C204.87 103.49 205.883 103.684 206.752 104.074C207.621 104.464 208.34 105.013 208.91 105.722C209.489 106.421 209.919 107.255 210.198 108.224C210.488 109.193 210.633 110.262 210.633 111.43V112.973H198.108V110.381H207.067V110.097C207.047 109.448 206.917 108.838 206.677 108.269C206.448 107.7 206.093 107.24 205.614 106.891C205.134 106.541 204.495 106.366 203.696 106.366C203.097 106.366 202.562 106.496 202.093 106.756C201.633 107.006 201.249 107.37 200.939 107.849C200.63 108.329 200.39 108.908 200.22 109.587C200.06 110.257 199.98 111.011 199.98 111.85V112.449C199.98 113.158 200.075 113.817 200.265 114.427C200.465 115.026 200.754 115.55 201.134 116C201.514 116.449 201.973 116.804 202.512 117.064C203.052 117.313 203.666 117.438 204.355 117.438C205.224 117.438 205.998 117.263 206.677 116.914C207.357 116.564 207.946 116.07 208.445 115.43L210.348 117.273C209.998 117.783 209.544 118.272 208.985 118.742C208.425 119.201 207.741 119.576 206.932 119.865C206.133 120.155 205.204 120.3 204.145 120.3Z" fill="white"/>
<path d="M229.125 110.808H249.888L240.989 119.288L242.108 120.5L253.125 110L242.108 99.5L240.989 100.712L249.888 109.192H229.125V110.808Z" fill="white"/>
<defs>
<filter id="filter0_f_19_1987" x="0.300003" y="0.300003" width="344.4" height="218.4" filterUnits="userSpaceOnUse" color-interpolation-filters="sRGB">
<feFlood flood-opacity="0" result="BackgroundImageFix"/>
<feBlend mode="normal" in="SourceGraphic" in2="BackgroundImageFix" result="shape"/>
<feGaussianBlur stdDeviation="36.35" result="effect1_foregroundBlur_19_1987"/>
</filter>
</defs>
</svg>
