<svg width="345" height="219" viewBox="0 0 345 219" fill="none" xmlns="http://www.w3.org/2000/svg">
<g filter="url(#filter0_f_19_1987)">
<rect x="73" y="73" width="199" height="73" fill="#FF0057"/>
</g>
<rect x="61" y="73" width="220.696" height="73.2711" rx="36.6355" fill="#1E1E1E"/>
<path d="M103.307 119.242H93.9485V98.6843H103.307C109.689 98.6843 113.709 102.612 113.709 108.963C113.709 115.315 109.689 119.242 103.307 119.242ZM103.307 101.661H97.2317V116.266H103.307C108.063 116.266 110.211 114.241 110.211 108.963C110.211 103.686 108.063 101.661 103.307 101.661ZM119.492 102.213H116.178V98.6843H119.492V102.213ZM119.492 119.242H116.178V103.993H119.492V119.242ZM129.771 119.549C124.861 119.549 122.069 117.616 122.069 114.087V113.995H125.383V114.241C125.383 116.235 126.58 116.88 129.771 116.88C132.747 116.88 133.637 116.266 133.637 114.916C133.637 113.658 132.9 113.259 130.722 112.952L126.549 112.4C123.665 112.032 121.916 110.804 121.916 108.258C121.916 105.588 124.34 103.686 129.034 103.686C133.698 103.686 136.521 105.557 136.521 109.178V109.27H133.238V109.086C133.238 107.276 132.317 106.324 128.942 106.324C126.15 106.324 125.168 106.938 125.168 108.38C125.168 109.577 125.782 110.006 128.083 110.313L131.612 110.804C135.232 111.265 136.889 112.492 136.889 115.008C136.889 117.861 134.066 119.549 129.771 119.549ZM146.982 119.549C141.95 119.549 138.666 116.327 138.666 111.633C138.666 106.877 141.95 103.686 146.982 103.686C151.553 103.686 154.898 106.263 154.898 110.068V110.375H151.615V110.191C151.615 107.828 149.897 106.662 146.92 106.662C143.484 106.662 141.95 108.288 141.95 111.633C141.95 114.916 143.484 116.573 146.92 116.573C149.897 116.573 151.615 115.407 151.615 113.044V112.829H154.898V113.167C154.898 116.972 151.553 119.549 146.982 119.549ZM165.142 119.549C160.079 119.549 156.674 116.327 156.674 111.633C156.674 106.877 160.079 103.686 165.142 103.686C170.236 103.686 173.641 106.877 173.641 111.633C173.641 116.327 170.236 119.549 165.142 119.549ZM165.142 116.603C168.855 116.603 170.389 114.854 170.389 111.633C170.389 108.38 168.855 106.601 165.142 106.601C161.46 106.601 159.926 108.38 159.926 111.633C159.926 114.854 161.46 116.603 165.142 116.603ZM185.834 119.242H181.784L174.666 103.993H178.317L183.748 116.02H183.993L189.424 103.993H193.014L185.834 119.242ZM202.385 119.549C197.383 119.549 194.1 116.726 194.1 111.633C194.1 106.877 197.353 103.686 202.323 103.686C207.049 103.686 210.27 106.294 210.27 110.927C210.27 111.479 210.24 111.909 210.148 112.369H197.199C197.322 115.315 198.764 116.88 202.293 116.88C205.484 116.88 206.803 115.836 206.803 114.026V113.781H210.117V114.057C210.117 117.309 206.926 119.549 202.385 119.549ZM202.262 106.294C198.887 106.294 197.414 107.797 197.23 110.528H207.141V110.467C207.141 107.644 205.515 106.294 202.262 106.294ZM216.066 119.242H212.752V103.993H215.79V108.104H216.005C216.465 105.649 218.122 103.686 221.252 103.686C224.719 103.686 226.222 106.171 226.222 109.055V111.05H222.939V109.7C222.939 107.521 222.019 106.509 219.748 106.509C217.14 106.509 216.066 107.951 216.066 110.682V119.242Z" fill="white"/>
<path d="M240.317 98V118.763L231.837 109.864L230.625 110.983L241.125 122L251.625 110.983L250.413 109.864L241.933 118.763V98H240.317Z" fill="white"/>
<defs>
<filter id="filter0_f_19_1987" x="0.300003" y="0.300003" width="344.4" height="218.4" filterUnits="userSpaceOnUse" color-interpolation-filters="sRGB">
<feFlood flood-opacity="0" result="BackgroundImageFix"/>
<feBlend mode="normal" in="SourceGraphic" in2="BackgroundImageFix" result="shape"/>
<feGaussianBlur stdDeviation="36.35" result="effect1_foregroundBlur_19_1987"/>
</filter>
</defs>
</svg>
